# xmcd
#
# Track frame offsets: 
#        150
#        3295
#        28424
#        52949
#        65399
#        66449
#        87406
#        111175
#        128114
#
# Disc length: 1932 seconds
#
# Revision: 3
# Processed by: cddbd v1.5.2PL0 Copyright (c) Steve Scherf et al.
# Submitted via: ExactAudioCopy v1.3
#
DISCID=78078a09
DTITLE=The Doors - Live at the London Fog
DYEAR=1966
DGENRE=Psychedelic Rock
TTITLE0=Tuning (I)
TTITLE1=Rock me
TTITLE2=Baby, Please Don't Go
TTITLE3=You Make Me Real
TTITLE4=Tuning (II)
TTITLE5=Don't Fight It
TTITLE6=I'm Your Hoochie Coochie Man
TTITLE7=Strange Days
TTITLE8=Lucille
EXTD=
EXTT0=
EXTT1=
EXTT2=
EXTT3=
EXTT4=
EXTT5=
EXTT6=
EXTT7=
EXTT8=
PLAYORDER=
